# xmcd
#
# Track frame offsets:
#	150
#	16125
#	37200
#	49257
#	62607
#	83082
#	107232
#	127393
#	142993
#	162141
#	180998
#	198858
#	217758
#	240408
#	253608
#	264248
#	277898
#
# Disc length: 3908 seconds
#
# Revision: 0
# Processed by: cddbd v1.5.2PL0 Copyright (c) Steve Scherf et al.
# Submitted via: EasyCDDAExtractor 12.0.1.1
#
DISCID=e30f4211
DTITLE=Bjøro Håland and Country Snakes - Live
DYEAR=2015
DGENRE=Country
TTITLE0=Georgia Boy
TTITLE1=Storms Never Last
TTITLE2=Walk On By
TTITLE3=Country Is
TTITLE4=Four Walls - Blue Canadian Rockies
TTITLE5=Medley - I Walk The Line - Folsom Prison Blues - Act Naturally - A Foo
TTITLE5=l Never Learns - Folsom Prison Blues
TTITLE6=Never Knew Lonely (Crowtown)
TTITLE7=About You (Crowtown)
TTITLE8=Mary And Me (Crowtown)
TTITLE9=Seven Spanish Angels
TTITLE10=I Love Norwegian Country
TTITLE11=Catfish John
TTITLE12=I Can't Stop Loving You
TTITLE13=Greensleeves (Egil Skjelnes)
TTITLE14=Most Of The Time
TTITLE15=Chrystal Chandeliers
TTITLE16=Some Broken Hearts Never Mend
EXTD=
EXTT0=
EXTT1=
EXTT2=
EXTT3=
EXTT4=
EXTT5=
EXTT6=
EXTT7=
EXTT8=
EXTT9=
EXTT10=
EXTT11=
EXTT12=
EXTT13=
EXTT14=
EXTT15=
EXTT16=
PLAYORDER=
